<svg width="67" height="67" viewBox="0 0 67 67" fill="none" xmlns="http://www.w3.org/2000/svg">
<g clip-path="url(#clip0_30_3)">
<path d="M67 0H0V67H67V0Z" fill="#8716E8"/>
<path d="M59.7851 17L51.9986 17.0905H51.6365C50.0067 17.1811 48.5581 17.8148 47.4716 18.7202L41.7676 23.1567C41.7676 23.1567 41.677 23.1567 41.677 23.2473L26.104 35.2892V28.6797C26.104 27.8648 25.4703 27.231 24.6554 27.231L8.44861 27.4121C7.63378 27.4121 7 28.0459 7 28.8608L7.09054 39.6351V40.9932V41.8986V42.0797C7.09054 42.2608 7.09054 42.4419 7.09054 42.7135C7.09054 42.804 7.09054 42.804 7.09054 42.8946C7.09054 42.9851 7.09054 42.9851 7.09054 43.0756C7.09054 43.3473 7.18108 43.6189 7.18108 43.7094C7.18108 43.981 7.27162 44.1621 7.36216 44.4338C7.54324 45.0675 7.72433 45.6108 7.99595 45.9729C8.17701 46.3351 8.35811 46.6067 8.62971 46.9689C9.17301 47.7837 9.80671 48.327 10.35 48.6892C11.8892 49.8662 14.2432 50.681 16.8689 50.681C19.4946 50.681 21.9392 49.8662 23.3878 48.5986C23.5689 48.5081 23.75 48.327 23.9311 48.2365C24.3838 47.8743 25.1081 47.15 25.923 46.3351C26.4662 45.7919 27.0094 45.1581 27.3716 44.7959L41.8581 29.5851C41.9486 29.4946 42.0392 29.404 42.0392 29.3135L45.1176 26.054L48.7392 22.3419L49.4635 21.527C50.7311 20.35 52.3608 19.6256 54.2621 19.6256H57.6121H59.8757C60.6 19.6256 61.1432 18.9919 61.1432 18.2675C61.1432 17.6338 60.5094 17 59.7851 17Z" fill="white"/>
</g>
<defs>
<clipPath id="clip0_30_3">
<rect width="67" height="67" fill="white"/>
</clipPath>
</defs>
</svg>
