<?xml version="1.0" encoding="utf-8"?>
<svg xmlns="http://www.w3.org/2000/svg" viewBox="261.2686 225.339 32.0007 32" width="32.0007px" height="32px"><defs><linearGradient id="paint0_linear_4043_1608" x1="15.263" y1="0.462145" x2="5.14429" y2="20.6848" gradientUnits="userSpaceOnUse" gradientTransform="matrix(1, 0, 0, 1, 261.268402, 225.339493)"><stop offset="0.125" stop-color="#2E3D56"/><stop offset="0.505" stop-color="#566481" stop-opacity="0.75"/><stop offset="0.75" stop-color="#8496B3" stop-opacity="0.5"/><stop offset="1" stop-color="#FFECDE" stop-opacity="0.5"/></linearGradient></defs><g id="object-3"><path d="M 293.145 256.947 C 293.289 256.715 293.317 256.419 293.181 256.143 L 285.593 240.967 L 278.009 225.795 C 277.705 225.187 276.837 225.187 276.533 225.795 L 271.473 235.911 L 266.413 246.027 L 293.145 256.947 Z" fill="white" style="stroke-width: 1;" id="object-0"/><path d="M 293.145 256.947 C 293.289 256.715 293.317 256.419 293.181 256.143 L 285.593 240.967 L 278.009 225.795 C 277.705 225.187 276.837 225.187 276.533 225.795 L 271.473 235.911 L 266.413 246.027 L 293.145 256.947 Z" fill="url(#paint0_linear_4043_1608)" style="stroke-width: 1;" id="object-1"/><path d="M 261.357 256.143 C 261.221 256.419 261.249 256.715 261.393 256.947 C 261.537 257.179 261.789 257.339 262.097 257.339 L 292.445 257.339 C 292.753 257.339 293.005 257.179 293.149 256.947 L 266.417 246.027 L 261.357 256.143 Z" fill="#2E3D56" style="stroke-width: 1;" id="object-2"/></g></svg>